<mxfile host="app.diagrams.net" agent="Mozilla/5.0 (Windows NT 10.0; Win64; x64) AppleWebKit/537.36 (KHTML, like Gecko) Chrome/140.0.0.0 Safari/537.36" version="28.2.3">
  <diagram name="Page-1" id="by3LVIhP9hoet9hPlD3X">
    <mxGraphModel dx="1226" dy="736" grid="1" gridSize="10" guides="1" tooltips="1" connect="1" arrows="1" fold="1" page="1" pageScale="1" pageWidth="827" pageHeight="1169" math="0" shadow="0">
      <root>
        <mxCell id="0" />
        <mxCell id="1" parent="0" />
        <mxCell id="ebCit1QxeyFifeV858S4-1" value="Student Information System" style="rounded=0;whiteSpace=wrap;html=1;fillColor=light-dark(#000000,#F0A856);fillStyle=solid;" vertex="1" parent="1">
          <mxGeometry x="183" y="40" width="460" height="60" as="geometry" />
        </mxCell>
        <mxCell id="ebCit1QxeyFifeV858S4-4" value="" style="edgeStyle=none;curved=1;rounded=0;orthogonalLoop=1;jettySize=auto;html=1;fontSize=12;startSize=8;endSize=8;" edge="1" parent="1" source="ebCit1QxeyFifeV858S4-2" target="ebCit1QxeyFifeV858S4-3">
          <mxGeometry relative="1" as="geometry" />
        </mxCell>
        <mxCell id="ebCit1QxeyFifeV858S4-12" value="" style="edgeStyle=none;curved=1;rounded=0;orthogonalLoop=1;jettySize=auto;html=1;fontSize=12;startSize=8;endSize=8;" edge="1" parent="1" source="ebCit1QxeyFifeV858S4-2" target="ebCit1QxeyFifeV858S4-11">
          <mxGeometry relative="1" as="geometry" />
        </mxCell>
        <mxCell id="ebCit1QxeyFifeV858S4-2" value="Admin" style="rounded=0;whiteSpace=wrap;html=1;fillColor=light-dark(#000000,#F0A856);fillStyle=solid;" vertex="1" parent="1">
          <mxGeometry x="30" y="160" width="120" height="60" as="geometry" />
        </mxCell>
        <mxCell id="ebCit1QxeyFifeV858S4-6" value="" style="edgeStyle=none;curved=1;rounded=0;orthogonalLoop=1;jettySize=auto;html=1;fontSize=12;startSize=8;endSize=8;" edge="1" parent="1" source="ebCit1QxeyFifeV858S4-3" target="ebCit1QxeyFifeV858S4-5">
          <mxGeometry relative="1" as="geometry" />
        </mxCell>
        <mxCell id="ebCit1QxeyFifeV858S4-3" value="Login to system" style="ellipse;whiteSpace=wrap;html=1;rounded=0;fillColor=light-dark(#000000,#F0A856);fillStyle=solid;" vertex="1" parent="1">
          <mxGeometry x="260" y="150" width="80" height="80" as="geometry" />
        </mxCell>
        <mxCell id="ebCit1QxeyFifeV858S4-5" value="&amp;nbsp;Check credentials" style="ellipse;whiteSpace=wrap;html=1;rounded=0;fillColor=light-dark(#000000,#F0A856);fillStyle=solid;" vertex="1" parent="1">
          <mxGeometry x="255" y="330" width="90" height="90" as="geometry" />
        </mxCell>
        <mxCell id="ebCit1QxeyFifeV858S4-7" value="" style="endArrow=classic;html=1;rounded=0;fontSize=12;startSize=8;endSize=8;curved=1;exitX=0.96;exitY=0.3;exitDx=0;exitDy=0;exitPerimeter=0;entryX=0;entryY=0.5;entryDx=0;entryDy=0;" edge="1" parent="1" source="ebCit1QxeyFifeV858S4-5" target="ebCit1QxeyFifeV858S4-8">
          <mxGeometry width="50" height="50" relative="1" as="geometry">
            <mxPoint x="300" y="230" as="sourcePoint" />
            <mxPoint x="450" y="200" as="targetPoint" />
          </mxGeometry>
        </mxCell>
        <mxCell id="ebCit1QxeyFifeV858S4-10" value="" style="edgeStyle=none;curved=1;rounded=0;orthogonalLoop=1;jettySize=auto;html=1;fontSize=12;startSize=8;endSize=8;" edge="1" parent="1" source="ebCit1QxeyFifeV858S4-8" target="ebCit1QxeyFifeV858S4-9">
          <mxGeometry relative="1" as="geometry" />
        </mxCell>
        <mxCell id="ebCit1QxeyFifeV858S4-8" value="Check Roles of Access" style="ellipse;whiteSpace=wrap;html=1;aspect=fixed;fillColor=light-dark(#000000,#F0A856);fillStyle=solid;" vertex="1" parent="1">
          <mxGeometry x="434" y="150" width="80" height="80" as="geometry" />
        </mxCell>
        <mxCell id="ebCit1QxeyFifeV858S4-37" style="edgeStyle=none;curved=1;rounded=0;orthogonalLoop=1;jettySize=auto;html=1;exitX=0.972;exitY=0.26;exitDx=0;exitDy=0;entryX=0;entryY=0.25;entryDx=0;entryDy=0;fontSize=12;startSize=8;endSize=8;exitPerimeter=0;" edge="1" parent="1" source="ebCit1QxeyFifeV858S4-9" target="ebCit1QxeyFifeV858S4-26">
          <mxGeometry relative="1" as="geometry" />
        </mxCell>
        <mxCell id="ebCit1QxeyFifeV858S4-38" style="edgeStyle=none;curved=1;rounded=0;orthogonalLoop=1;jettySize=auto;html=1;exitX=1.007;exitY=0.434;exitDx=0;exitDy=0;entryX=0;entryY=0.25;entryDx=0;entryDy=0;fontSize=12;startSize=8;endSize=8;exitPerimeter=0;" edge="1" parent="1" source="ebCit1QxeyFifeV858S4-9" target="ebCit1QxeyFifeV858S4-27">
          <mxGeometry relative="1" as="geometry" />
        </mxCell>
        <mxCell id="ebCit1QxeyFifeV858S4-39" style="edgeStyle=none;curved=1;rounded=0;orthogonalLoop=1;jettySize=auto;html=1;exitX=0.972;exitY=0.599;exitDx=0;exitDy=0;entryX=0;entryY=0.25;entryDx=0;entryDy=0;fontSize=12;startSize=8;endSize=8;exitPerimeter=0;" edge="1" parent="1" source="ebCit1QxeyFifeV858S4-9" target="ebCit1QxeyFifeV858S4-28">
          <mxGeometry relative="1" as="geometry" />
        </mxCell>
        <mxCell id="ebCit1QxeyFifeV858S4-40" style="edgeStyle=none;curved=1;rounded=0;orthogonalLoop=1;jettySize=auto;html=1;exitX=0.946;exitY=0.816;exitDx=0;exitDy=0;entryX=0;entryY=0.25;entryDx=0;entryDy=0;fontSize=12;startSize=8;endSize=8;exitPerimeter=0;" edge="1" parent="1" source="ebCit1QxeyFifeV858S4-9" target="ebCit1QxeyFifeV858S4-29">
          <mxGeometry relative="1" as="geometry" />
        </mxCell>
        <mxCell id="ebCit1QxeyFifeV858S4-41" style="edgeStyle=none;curved=1;rounded=0;orthogonalLoop=1;jettySize=auto;html=1;exitX=0.763;exitY=0.964;exitDx=0;exitDy=0;entryX=0;entryY=0.25;entryDx=0;entryDy=0;fontSize=12;startSize=8;endSize=8;exitPerimeter=0;" edge="1" parent="1" source="ebCit1QxeyFifeV858S4-9" target="ebCit1QxeyFifeV858S4-30">
          <mxGeometry relative="1" as="geometry" />
        </mxCell>
        <mxCell id="ebCit1QxeyFifeV858S4-43" style="edgeStyle=none;curved=1;rounded=0;orthogonalLoop=1;jettySize=auto;html=1;exitX=0.32;exitY=1.016;exitDx=0;exitDy=0;fontSize=12;startSize=8;endSize=8;exitPerimeter=0;" edge="1" parent="1" source="ebCit1QxeyFifeV858S4-9" target="ebCit1QxeyFifeV858S4-32">
          <mxGeometry relative="1" as="geometry" />
        </mxCell>
        <mxCell id="ebCit1QxeyFifeV858S4-44" style="edgeStyle=none;curved=1;rounded=0;orthogonalLoop=1;jettySize=auto;html=1;fontSize=12;startSize=8;endSize=8;" edge="1" parent="1" source="ebCit1QxeyFifeV858S4-9" target="ebCit1QxeyFifeV858S4-33">
          <mxGeometry relative="1" as="geometry" />
        </mxCell>
        <mxCell id="ebCit1QxeyFifeV858S4-9" value="Manage Modules" style="ellipse;whiteSpace=wrap;html=1;fillColor=light-dark(#000000,#F0A856);fillStyle=solid;" vertex="1" parent="1">
          <mxGeometry x="434" y="330" width="80" height="80" as="geometry" />
        </mxCell>
        <mxCell id="ebCit1QxeyFifeV858S4-14" value="" style="edgeStyle=none;curved=1;rounded=0;orthogonalLoop=1;jettySize=auto;html=1;fontSize=12;startSize=8;endSize=8;" edge="1" parent="1" source="ebCit1QxeyFifeV858S4-11" target="ebCit1QxeyFifeV858S4-13">
          <mxGeometry relative="1" as="geometry" />
        </mxCell>
        <mxCell id="ebCit1QxeyFifeV858S4-11" value="Forgot passwaord" style="ellipse;whiteSpace=wrap;html=1;rounded=0;fillColor=light-dark(#000000,#F0A856);fillStyle=solid;" vertex="1" parent="1">
          <mxGeometry x="50" y="335" width="80" height="80" as="geometry" />
        </mxCell>
        <mxCell id="ebCit1QxeyFifeV858S4-13" value="Send E-mail to user" style="ellipse;whiteSpace=wrap;html=1;rounded=0;fillColor=light-dark(#000000,#F0A856);fillStyle=solid;" vertex="1" parent="1">
          <mxGeometry x="50" y="545" width="80" height="80" as="geometry" />
        </mxCell>
        <mxCell id="ebCit1QxeyFifeV858S4-15" value="" style="endArrow=classic;html=1;rounded=0;fontSize=12;startSize=8;endSize=8;curved=1;exitX=0.702;exitY=0.016;exitDx=0;exitDy=0;exitPerimeter=0;" edge="1" parent="1" source="ebCit1QxeyFifeV858S4-9">
          <mxGeometry width="50" height="50" relative="1" as="geometry">
            <mxPoint x="480" y="328" as="sourcePoint" />
            <mxPoint x="620" y="170" as="targetPoint" />
          </mxGeometry>
        </mxCell>
        <mxCell id="ebCit1QxeyFifeV858S4-16" value="Manage Timetable Details" style="rounded=0;whiteSpace=wrap;html=1;fillColor=light-dark(#000000,#F0A856);fillStyle=solid;" vertex="1" parent="1">
          <mxGeometry x="620" y="140" width="200" height="60" as="geometry" />
        </mxCell>
        <mxCell id="ebCit1QxeyFifeV858S4-25" value="Manage Attendence Details" style="rounded=0;whiteSpace=wrap;html=1;fillColor=light-dark(#000000,#F0A856);fillStyle=solid;" vertex="1" parent="1">
          <mxGeometry x="620" y="240" width="200" height="60" as="geometry" />
        </mxCell>
        <mxCell id="ebCit1QxeyFifeV858S4-26" value="Manage Class Details" style="rounded=0;whiteSpace=wrap;html=1;fillColor=light-dark(#000000,#F0A856);fillStyle=solid;" vertex="1" parent="1">
          <mxGeometry x="620" y="330" width="200" height="60" as="geometry" />
        </mxCell>
        <mxCell id="ebCit1QxeyFifeV858S4-27" value="Manage Student Details" style="rounded=0;whiteSpace=wrap;html=1;fillColor=light-dark(#000000,#F0A856);fillStyle=solid;" vertex="1" parent="1">
          <mxGeometry x="620" y="410" width="200" height="60" as="geometry" />
        </mxCell>
        <mxCell id="ebCit1QxeyFifeV858S4-28" value="Manage Fees Details" style="rounded=0;whiteSpace=wrap;html=1;fillColor=light-dark(#000000,#F0A856);fillStyle=solid;" vertex="1" parent="1">
          <mxGeometry x="620" y="500" width="200" height="60" as="geometry" />
        </mxCell>
        <mxCell id="ebCit1QxeyFifeV858S4-29" value="Manage Teacher Profile" style="rounded=0;whiteSpace=wrap;html=1;fillColor=light-dark(#000000,#F0A856);fillStyle=solid;" vertex="1" parent="1">
          <mxGeometry x="620" y="570" width="200" height="60" as="geometry" />
        </mxCell>
        <mxCell id="ebCit1QxeyFifeV858S4-30" value="Manage Report" style="rounded=0;whiteSpace=wrap;html=1;fillColor=light-dark(#000000,#F0A856);fillStyle=solid;" vertex="1" parent="1">
          <mxGeometry x="620" y="650" width="200" height="60" as="geometry" />
        </mxCell>
        <mxCell id="ebCit1QxeyFifeV858S4-31" value="Manage user permissions" style="rounded=0;whiteSpace=wrap;html=1;fillColor=light-dark(#000000,#F0A856);fillStyle=solid;" vertex="1" parent="1">
          <mxGeometry x="400" y="650" width="176" height="60" as="geometry" />
        </mxCell>
        <mxCell id="ebCit1QxeyFifeV858S4-32" value="Manage roles of users" style="rounded=0;whiteSpace=wrap;html=1;fillColor=light-dark(#000000,#F0A856);fillStyle=solid;" vertex="1" parent="1">
          <mxGeometry x="230" y="650" width="160" height="60" as="geometry" />
        </mxCell>
        <mxCell id="ebCit1QxeyFifeV858S4-33" value="Manage system admins" style="rounded=0;whiteSpace=wrap;html=1;fillColor=light-dark(#000000,#F0A856);fillStyle=solid;" vertex="1" parent="1">
          <mxGeometry x="40" y="650" width="160" height="60" as="geometry" />
        </mxCell>
        <mxCell id="ebCit1QxeyFifeV858S4-36" value="" style="endArrow=classic;html=1;rounded=0;fontSize=12;startSize=8;endSize=8;curved=1;entryX=0.005;entryY=0.362;entryDx=0;entryDy=0;entryPerimeter=0;exitX=1;exitY=0;exitDx=0;exitDy=0;" edge="1" parent="1" source="ebCit1QxeyFifeV858S4-9" target="ebCit1QxeyFifeV858S4-25">
          <mxGeometry width="50" height="50" relative="1" as="geometry">
            <mxPoint x="370" y="410" as="sourcePoint" />
            <mxPoint x="420" y="360" as="targetPoint" />
          </mxGeometry>
        </mxCell>
        <mxCell id="ebCit1QxeyFifeV858S4-42" style="edgeStyle=none;curved=1;rounded=0;orthogonalLoop=1;jettySize=auto;html=1;exitX=0.589;exitY=1.042;exitDx=0;exitDy=0;entryX=0.449;entryY=0.057;entryDx=0;entryDy=0;entryPerimeter=0;fontSize=12;startSize=8;endSize=8;exitPerimeter=0;" edge="1" parent="1" source="ebCit1QxeyFifeV858S4-9" target="ebCit1QxeyFifeV858S4-31">
          <mxGeometry relative="1" as="geometry" />
        </mxCell>
      </root>
    </mxGraphModel>
  </diagram>
</mxfile>
